<svg width="80" height="80" viewBox="0 0 80 80" fill="none" xmlns="http://www.w3.org/2000/svg">
<circle cx="40" cy="40" r="40" fill="#E8E8E8"/>
<path d="M60.6334 51.8826C58.7723 61.6103 50.031 69 39.5 69C28.969 69 20.2277 61.6103 18.3666 51.8826C18.2526 51.2871 18.4772 50.768 18.9222 50.402C19.3817 50.0241 20.0583 49.8344 20.7459 49.9856C24.7573 50.8679 31.4673 52 39.5 52C47.5327 52 54.2427 50.8679 58.2541 49.9856C58.9417 49.8344 59.6183 50.0241 60.0778 50.402C60.5228 50.768 60.7474 51.2871 60.6334 51.8826Z" stroke="#F4F4F4" stroke-width="2"/>
<path d="M17 32C17 28.134 20.134 25 24 25C27.866 25 31 28.134 31 32" stroke="#F4F4F4" stroke-width="2" stroke-linecap="round" stroke-linejoin="round"/>
<path d="M48 32C48 28.134 51.134 25 55 25C58.866 25 62 28.134 62 32" stroke="#F4F4F4" stroke-width="2" stroke-linecap="round" stroke-linejoin="round"/>
</svg>
