<svg width="18" height="19" viewBox="0 0 18 19" fill="none" xmlns="http://www.w3.org/2000/svg">
<circle cx="7.125" cy="6.375" r="5.875" stroke="#802AD4"/>
<mask id="path-2-inside-1" fill="white">
<path d="M10.0851 6.375C10.3143 6.375 10.5026 6.18855 10.4745 5.96115C10.4052 5.40038 10.1959 4.8636 9.86296 4.40163C9.4488 3.82699 8.86433 3.39723 8.19234 3.17322C7.52035 2.94921 6.79492 2.9423 6.11879 3.15348C5.44266 3.36466 4.85012 3.78323 4.42509 4.34988C4.00006 4.91653 3.76409 5.60255 3.75061 6.31076C3.73713 7.01898 3.94682 7.71348 4.34997 8.2959C4.75313 8.87832 5.32931 9.31913 5.99692 9.55589C6.53362 9.74623 7.10753 9.79693 7.66528 9.70648C7.89146 9.6698 8.01772 9.43676 7.95358 9.21679V9.21679C7.88944 8.99682 7.65893 8.87414 7.43146 8.90173C7.04288 8.94886 6.64669 8.90593 6.27426 8.77385C5.77079 8.5953 5.33626 8.26287 5.03223 7.82364C4.72819 7.38441 4.57005 6.86065 4.58022 6.32656C4.59039 5.79246 4.76834 5.2751 5.08887 4.84776C5.40941 4.42043 5.85627 4.10477 6.36617 3.94551C6.87607 3.78625 7.42315 3.79145 7.92993 3.96039C8.43671 4.12933 8.87748 4.45343 9.18982 4.88679C9.42087 5.20736 9.57298 5.5757 9.6365 5.96195C9.67369 6.18804 9.85599 6.375 10.0851 6.375V6.375Z"/>
</mask>
<path d="M10.0851 6.375C10.3143 6.375 10.5026 6.18855 10.4745 5.96115C10.4052 5.40038 10.1959 4.8636 9.86296 4.40163C9.4488 3.82699 8.86433 3.39723 8.19234 3.17322C7.52035 2.94921 6.79492 2.9423 6.11879 3.15348C5.44266 3.36466 4.85012 3.78323 4.42509 4.34988C4.00006 4.91653 3.76409 5.60255 3.75061 6.31076C3.73713 7.01898 3.94682 7.71348 4.34997 8.2959C4.75313 8.87832 5.32931 9.31913 5.99692 9.55589C6.53362 9.74623 7.10753 9.79693 7.66528 9.70648C7.89146 9.6698 8.01772 9.43676 7.95358 9.21679V9.21679C7.88944 8.99682 7.65893 8.87414 7.43146 8.90173C7.04288 8.94886 6.64669 8.90593 6.27426 8.77385C5.77079 8.5953 5.33626 8.26287 5.03223 7.82364C4.72819 7.38441 4.57005 6.86065 4.58022 6.32656C4.59039 5.79246 4.76834 5.2751 5.08887 4.84776C5.40941 4.42043 5.85627 4.10477 6.36617 3.94551C6.87607 3.78625 7.42315 3.79145 7.92993 3.96039C8.43671 4.12933 8.87748 4.45343 9.18982 4.88679C9.42087 5.20736 9.57298 5.5757 9.6365 5.96195C9.67369 6.18804 9.85599 6.375 10.0851 6.375V6.375Z" stroke="#802AD4" stroke-width="2" mask="url(#path-2-inside-1)"/>
<mask id="path-3-inside-2" fill="white">
<path d="M12.0223 8.66924C13.0238 8.58688 14.0254 8.8253 14.8823 9.34999C15.7393 9.87468 16.407 10.6584 16.789 11.5878C17.1709 12.5172 17.2472 13.544 17.0069 14.5196C16.7665 15.4952 16.222 16.3691 15.452 17.0147C14.6821 17.6603 13.7267 18.0442 12.7241 18.1108C11.7215 18.1774 10.7237 17.9232 9.87516 17.3851C9.02659 16.847 8.37126 16.0528 8.00399 15.1176C7.63672 14.1823 7.57657 13.1544 7.83224 12.1827L8.75545 12.4256C8.55134 13.2014 8.59936 14.022 8.89256 14.7686C9.18577 15.5153 9.70895 16.1493 10.3864 16.5789C11.0638 17.0085 11.8604 17.2114 12.6608 17.1583C13.4612 17.1051 14.224 16.7986 14.8387 16.2832C15.4533 15.7678 15.8881 15.0702 16.08 14.2913C16.2718 13.5124 16.2109 12.6926 15.906 11.9507C15.6011 11.2087 15.068 10.583 14.3839 10.1641C13.6997 9.74525 12.9001 9.55491 12.1006 9.62066L12.0223 8.66924Z"/>
</mask>
<path d="M12.0223 8.66924C13.0238 8.58688 14.0254 8.8253 14.8823 9.34999C15.7393 9.87468 16.407 10.6584 16.789 11.5878C17.1709 12.5172 17.2472 13.544 17.0069 14.5196C16.7665 15.4952 16.222 16.3691 15.452 17.0147C14.6821 17.6603 13.7267 18.0442 12.7241 18.1108C11.7215 18.1774 10.7237 17.9232 9.87516 17.3851C9.02659 16.847 8.37126 16.0528 8.00399 15.1176C7.63672 14.1823 7.57657 13.1544 7.83224 12.1827L8.75545 12.4256C8.55134 13.2014 8.59936 14.022 8.89256 14.7686C9.18577 15.5153 9.70895 16.1493 10.3864 16.5789C11.0638 17.0085 11.8604 17.2114 12.6608 17.1583C13.4612 17.1051 14.224 16.7986 14.8387 16.2832C15.4533 15.7678 15.8881 15.0702 16.08 14.2913C16.2718 13.5124 16.2109 12.6926 15.906 11.9507C15.6011 11.2087 15.068 10.583 14.3839 10.1641C13.6997 9.74525 12.9001 9.55491 12.1006 9.62066L12.0223 8.66924Z" stroke="#802AD4" stroke-width="2" mask="url(#path-3-inside-2)"/>
</svg>
